HIERARCHY
ROOT Hips
{
	OFFSET -0.001795 -0.223333 0.028219
	CHANNELS 6 Xposition Yposition Zposition Zrotation Yrotation Xrotation 
	JOINT LeftUpLeg
	{
		OFFSET 0.069520 -0.091406 -0.006815
		CHANNELS 3 Zrotation Yrotation Xrotation
		JOINT LeftLeg
		{
			OFFSET 0.034277 -0.375199 -0.004496
			CHANNELS 3 Zrotation Yrotation Xrotation
			JOINT LeftFoot
			{
				OFFSET -0.013596 -0.397961 -0.043693
				CHANNELS 3 Zrotation Yrotation Xrotation
				JOINT LeftToe
				{
					OFFSET 0.026358 -0.055791 0.119288
					CHANNELS 3 Zrotation Yrotation Xrotation
					End Site
					{
						OFFSET 0.000000 0.000000 0.000000
					}
				}
			}
		}
	}
	JOINT RightUpLeg
	{
		OFFSET -0.067670 -0.090522 -0.004320
		CHANNELS 3 Zrotation Yrotation Xrotation
		JOINT RightLeg
		{
			OFFSET -0.038290 -0.382569 -0.008850
			CHANNELS 3 Zrotation Yrotation Xrotation
			JOINT RightFoot
			{
				OFFSET 0.015774 -0.398415 -0.042312
				CHANNELS 3 Zrotation Yrotation Xrotation
				JOINT RightToe
				{
					OFFSET -0.025372 -0.048144 0.123348
					CHANNELS 3 Zrotation Yrotation Xrotation
					End Site
					{
						OFFSET 0.000000 0.000000 0.000000
					}
				}
			}
		}
	}
	JOINT Spine
	{
		OFFSET -0.002533 0.108963 -0.026696
		CHANNELS 3 Zrotation Yrotation Xrotation
		JOINT Spine1
		{
			OFFSET 0.005487 0.135180 0.001092
			CHANNELS 3 Zrotation Yrotation Xrotation
			JOINT Spine2
			{
				OFFSET 0.001457 0.052922 0.025425
				CHANNELS 3 Zrotation Yrotation Xrotation
				JOINT Neck
				{
					OFFSET -0.002778 0.213870 -0.042857
					CHANNELS 3 Zrotation Yrotation Xrotation
					JOINT Head
					{
						OFFSET 0.005152 0.064970 0.051349
						CHANNELS 3 Zrotation Yrotation Xrotation
						End Site
						{
							OFFSET 0.000000 0.000000 0.000000
						}
					}
				}
				JOINT LeftShoulder
				{
					OFFSET 0.078845 0.121749 -0.034090
					CHANNELS 3 Zrotation Yrotation Xrotation
					JOINT LeftArm
					{
						OFFSET 0.090977 0.030469 -0.008868
						CHANNELS 3 Zrotation Yrotation Xrotation
						JOINT LeftForeArm
						{
							OFFSET 0.259612 -0.012772 -0.027456
							CHANNELS 3 Zrotation Yrotation Xrotation
							JOINT LeftHand
							{
								OFFSET 0.249234 0.008986 -0.001171
								CHANNELS 3 Zrotation Yrotation Xrotation
								End Site
								{
									OFFSET 0.000000 0.000000 0.000000
								}
							}
						}
					}
				}
				JOINT RightShoulder
				{
					OFFSET -0.081759 0.118833 -0.038615
					CHANNELS 3 Zrotation Yrotation Xrotation
					JOINT RightArm
					{
						OFFSET -0.096012 0.032551 -0.009143
						CHANNELS 3 Zrotation Yrotation Xrotation
						JOINT RightForeArm
						{
							OFFSET -0.253742 -0.013329 -0.021401
							CHANNELS 3 Zrotation Yrotation Xrotation
							JOINT RightHand
							{
								OFFSET -0.255298 0.007772 -0.005559
								CHANNELS 3 Zrotation Yrotation Xrotation
								End Site
								{
									OFFSET 0.000000 0.000000 0.000000
								}
							}
						}
					}
				}
			}
		}
	}
}
MOTION
Frames: 17
Frame Time: 0.050000
0.000000 0.951261 0.000000 2.201575 -4.375042 2.947102 2.081547 -0.352014 -4.392422 -1.859591 0.217090 0.163172 12.003398 22.258314 25.297362 0.000000 0.000000 0.000000 -9.442815 0.487051 -5.074010 3.030501 -0.233887 3.387919 -10.730213 -24.417289 16.324863 0.000000 0.000000 0.000000 8.754115 -1.458205 11.739288 -3.631620 1.404249 -24.850372 1.398813 9.893120 23.929758 5.162579 0.281889 -30.104918 0.000000 0.000000 0.000000 20.436514 -17.604010 4.461506 16.331834 -32.928457 -5.993119 64.190441 -14.667579 -11.110386 0.000000 0.000000 0.000000 9.541286 11.422394 5.527875 30.227273 43.916032 5.945867 99.442872 68.541320 85.145032 0.000000 0.000000 0.000000 
0.001053 0.952944 0.000124 1.824585 -4.065956 3.350762 1.696197 -0.381768 -4.614581 -0.555301 0.071293 -0.234384 11.774901 22.003131 25.598471 0.000000 0.000000 0.000000 -9.119669 0.502999 -5.878577 3.064396 -0.242185 3.321875 -11.530925 -25.432192 18.945224 0.000000 0.000000 0.000000 7.781804 -1.326283 11.357010 -1.011705 0.785959 -24.229633 -0.726887 8.550181 23.437666 5.308101 0.166207 -31.357113 0.000000 0.000000 0.000000 20.770079 -16.983735 4.187317 20.081742 -35.112388 -7.338756 59.128403 -15.035813 -9.851964 0.000000 0.000000 0.000000 11.505864 12.761876 6.274342 29.710905 40.995457 4.885380 105.426503 65.084051 87.031233 0.000000 0.000000 0.000000 
0.001518 0.953662 -0.000276 1.456246 -4.278930 3.702929 2.467803 -0.368679 -4.735424 -1.261790 0.162081 -0.662127 11.857701 22.065761 25.811776 0.000000 0.000000 0.000000 -9.146763 0.532888 -6.694143 4.054854 -0.356676 3.891705 -11.896509 -25.957884 19.228449 0.000000 0.000000 0.000000 8.888043 -1.392768 10.739077 -2.303077 1.080433 -23.812336 -0.731742 7.195925 23.417000 4.180757 0.232037 -28.502837 0.000000 0.000000 0.000000 21.310793 -17.469148 3.934509 21.442064 -35.848186 -7.633693 56.374236 -18.519309 -10.712100 0.000000 0.000000 0.000000 10.907977 12.728796 5.932848 31.899034 35.386945 3.929132 104.673433 59.283593 79.092891 0.000000 0.000000 0.000000 
0.001443 0.953501 -0.001118 1.491536 -4.118100 3.815720 2.894117 -0.373850 -4.989337 -2.036456 0.247005 -0.579324 11.763596 21.976264 25.705229 0.000000 0.000000 0.000000 -9.115314 0.535368 -6.857098 3.754659 -0.325007 3.432574 -12.198531 -26.268385 20.486829 0.000000 0.000000 0.000000 8.580110 -1.394532 11.017367 -1.992911 1.006719 -23.626660 -1.177304 6.649036 23.876652 5.182117 -0.379694 -28.618845 0.000000 0.000000 0.000000 23.332773 -18.095949 3.693324 21.785698 -36.425591 -7.822208 56.632440 -21.309073 -12.128145 0.000000 0.000000 0.000000 11.448754 11.878275 5.548226 32.420755 32.809531 3.282996 104.011257 54.695441 72.878755 0.000000 0.000000 0.000000 
0.000989 0.953751 -0.002259 1.863328 -3.266673 3.797114 2.740180 -0.376191 -4.886221 -2.338564 0.283724 -1.099378 11.179148 21.386285 25.556099 0.000000 0.000000 0.000000 -9.334809 0.502827 -6.456405 3.591867 -0.322463 2.620111 -13.016755 -27.205646 21.636467 0.000000 0.000000 0.000000 8.599804 -1.456392 11.449012 -2.568447 1.156577 -23.377156 -1.307194 5.019289 23.981467 4.645258 -0.323034 -28.253703 0.000000 0.000000 0.000000 21.502675 -19.314790 3.871904 22.113617 -37.521051 -8.073456 57.602403 -28.619200 -16.055216 0.000000 0.000000 0.000000 11.927424 10.628366 4.856639 32.043053 28.311447 1.991678 108.697439 53.398968 75.617356 0.000000 0.000000 0.000000 
0.000054 0.953703 -0.003631 2.093204 -3.102157 4.321391 3.039038 -0.406407 -5.420066 -3.154921 0.371102 -1.402876 11.040316 21.233826 25.691729 0.000000 0.000000 0.000000 -9.184980 0.515313 -6.649580 2.766177 -0.234209 2.084643 -12.590377 -26.649299 21.305080 0.000000 0.000000 0.000000 8.049873 -1.458797 11.942892 -1.821201 0.970978 -22.915687 -1.889349 4.385367 23.618575 4.436086 -0.285725 -28.211475 0.000000 0.000000 0.000000 20.033232 -19.685464 4.068003 20.212834 -40.195231 -8.367455 63.117666 -37.847070 -23.333654 0.000000 0.000000 0.000000 12.834492 9.721194 4.422495 31.980827 24.595297 1.064783 111.514701 52.184254 76.820120 0.000000 0.000000 0.000000 
-0.001149 0.953425 -0.005226 2.144315 -3.560926 4.600919 3.153661 -0.413438 -5.594599 -3.336986 0.394337 -1.722835 11.288811 21.463349 25.981162 0.000000 0.000000 0.000000 -9.212829 0.540257 -7.007594 2.676605 -0.222565 1.960027 -12.053938 -26.003474 20.722329 0.000000 0.000000 0.000000 7.928858 -1.480397 12.307245 -1.968768 0.998045 -22.754217 -2.075316 3.644699 24.060599 4.623558 -0.488679 -28.957316 0.000000 0.000000 0.000000 16.745170 -21.190345 4.644309 17.013813 -41.285130 -7.643590 70.867449 -47.607369 -33.621453 0.000000 0.000000 0.000000 13.229147 7.906066 3.397966 32.699173 21.479213 0.346721 114.031871 51.648178 78.384911 0.000000 0.000000 0.000000 
-0.002857 0.953385 -0.006773 2.153211 -4.127716 5.374223 3.343495 -0.458106 -6.399957 -3.502876 0.415022 -1.856726 11.618018 21.762100 26.469593 0.000000 0.000000 0.000000 -8.967632 0.597957 -8.016260 2.200094 -0.165290 1.943886 -11.536427 -25.369798 20.386164 0.000000 0.000000 0.000000 8.011908 -1.504158 12.322742 -2.051912 1.002978 -22.546415 -3.042513 2.663316 23.969028 4.226822 -0.528509 -28.369570 0.000000 0.000000 0.000000 14.020219 -22.289613 5.200676 9.974775 -42.537058 -5.790940 84.677034 -58.591979 -51.390433 0.000000 0.000000 0.000000 13.164256 6.738139 2.583073 33.757048 18.063213 -0.354897 116.504593 52.645588 81.658774 0.000000 0.000000 0.000000 
-0.004646 0.952771 -0.008330 2.127137 -5.142071 6.156187 3.802751 -0.461185 -6.817806 -4.100752 0.483108 -2.578225 12.198136 22.287859 27.049470 0.000000 0.000000 0.000000 -8.714949 0.674275 -9.122474 1.879608 -0.126839 1.823968 -11.074739 -24.856735 19.894693 0.000000 0.000000 0.000000 7.966050 -1.454191 11.840331 -2.030816 0.960211 -21.478302 -4.182691 1.868674 23.670793 4.260989 -0.702650 -28.851139 0.000000 0.000000 0.000000 9.902949 -23.029027 6.076356 2.684224 -43.619481 -3.775253 105.725658 -68.804128 -79.536220 0.000000 0.000000 0.000000 14.007925 5.147978 1.520491 34.266872 14.285104 -1.172057 117.805086 52.617929 82.085948 0.000000 0.000000 0.000000 
-0.006488 0.952509 -0.009880 2.060666 -5.706163 6.480560 4.447411 -0.446203 -7.169459 -4.903146 0.568446 -2.617069 12.514002 22.562599 27.403128 0.000000 0.000000 0.000000 -8.479556 0.710629 -9.452823 1.747002 -0.121015 1.403155 -10.792818 -24.527069 19.632538 0.000000 0.000000 0.000000 8.157560 -1.505929 12.116170 -1.938348 0.922238 -21.389234 -5.452324 0.642428 24.254566 3.785648 -0.656530 -29.426796 0.000000 0.000000 0.000000 4.962372 -25.491339 7.796227 -5.580837 -43.285833 -1.382179 136.739320 -77.039159 -120.571569 0.000000 0.000000 0.000000 14.706560 4.429455 0.820940 34.797378 11.011124 -1.923892 114.777845 55.232637 80.872030 0.000000 0.000000 0.000000 
-0.008065 0.952384 -0.011702 1.968082 -6.420339 7.122725 4.808095 -0.452677 -7.753271 -5.190203 0.602537 -2.846580 12.933053 22.921859 27.927887 0.000000 0.000000 0.000000 -8.313393 0.771681 -10.257578 1.730040 -0.123342 1.120012 -10.450390 -24.127918 19.434710 0.000000 0.000000 0.000000 8.476894 -1.543020 12.016813 -2.140114 0.952162 -20.801023 -6.834468 -0.759767 24.482240 4.216081 -1.035957 -30.866800 0.000000 0.000000 0.000000 0.241879 -27.403290 9.721605 -13.756268 -44.216683 0.995447 -165.859428 -83.800587 171.587592 0.000000 0.000000 0.000000 16.053312 4.093923 0.137397 35.326441 8.843913 -2.350327 107.078630 59.023029 76.109671 0.000000 0.000000 0.000000 
-0.009479 0.952541 -0.013575 1.917830 -6.478048 7.437591 5.057095 -0.455529 -8.096438 -5.331602 0.614854 -3.027732 12.941180 22.903595 28.174736 0.000000 0.000000 0.000000 -8.341568 0.788235 -10.527343 2.036584 -0.161234 0.764270 -10.434732 -24.111402 19.509459 0.000000 0.000000 0.000000 8.758499 -1.629748 12.416434 -2.026101 0.916074 -20.577604 -8.384486 -2.605152 24.581313 3.910596 -1.234458 -30.306767 0.000000 0.000000 0.000000 -3.919355 -29.452342 11.899263 -19.953694 -46.879083 3.270561 -67.881958 -80.875353 66.496432 0.000000 0.000000 0.000000 17.552079 4.615199 -0.204072 35.861346 7.863746 -2.467489 89.465927 63.792311 63.758474 0.000000 0.000000 0.000000 
-0.011062 0.952788 -0.015553 1.947086 -5.879614 7.440674 5.311532 -0.455167 -8.260335 -5.568018 0.629669 -3.105793 12.542283 22.521157 28.121598 0.000000 0.000000 0.000000 -8.280657 0.776079 -10.551927 1.955176 -0.149523 1.045006 -10.334947 -23.922015 19.253476 0.000000 0.000000 0.000000 8.557391 -1.626333 12.532223 -1.900352 0.889314 -20.014333 -9.191394 -4.881609 24.454800 3.143779 -1.137486 -30.311775 0.000000 0.000000 0.000000 -6.356871 -31.733733 13.921178 -23.604859 -52.171824 5.771110 -31.046736 -70.854631 27.905906 0.000000 0.000000 0.000000 18.036059 5.650832 -0.222202 37.675831 8.355146 -2.264201 59.439105 64.379338 39.560118 0.000000 0.000000 0.000000 
-0.013295 0.952936 -0.017405 1.905132 -5.579169 7.298520 5.560550 -0.434778 -8.046247 -5.626879 0.626921 -3.454495 12.301959 22.278353 28.184167 0.000000 0.000000 0.000000 -8.215843 0.756846 -10.232721 2.056531 -0.166929 0.799399 -10.133994 -23.602329 19.090676 0.000000 0.000000 0.000000 8.153368 -1.555668 12.339153 -1.900382 0.885317 -19.375770 -9.835098 -5.791511 24.532579 2.705913 -1.235467 -27.917221 0.000000 0.000000 0.000000 -5.575820 -33.554489 14.481027 -22.117008 -57.192085 6.493422 -14.522511 -64.161175 13.601104 0.000000 0.000000 0.000000 18.150751 7.317931 0.462122 39.393635 9.309083 -2.038604 40.086017 62.447884 25.111544 0.000000 0.000000 0.000000 
-0.016056 0.953500 -0.019081 1.785555 -5.410877 7.216793 6.094021 -0.394057 -7.696856 -5.986223 0.648050 -4.088662 12.082190 22.031595 28.469777 0.000000 0.000000 0.000000 -8.082943 0.761397 -10.408065 2.254004 -0.176052 1.299390 -9.906795 -23.265329 18.873966 0.000000 0.000000 0.000000 7.841913 -1.517765 12.364987 -2.031760 0.918711 -18.670282 -9.544730 -6.069488 24.005837 2.496433 -1.196868 -27.137325 0.000000 0.000000 0.000000 -2.990342 -34.599133 13.930089 -15.636799 -60.817607 4.351855 -0.658642 -62.005029 4.346546 0.000000 0.000000 0.000000 17.830759 8.773906 1.222499 40.151824 11.190954 -1.476197 31.952521 58.215388 18.358415 0.000000 0.000000 0.000000 
-0.018846 0.953890 -0.020561 1.713505 -5.541775 7.357456 6.281875 -0.380076 -7.547583 -5.849215 0.628489 -4.706386 12.067995 21.977521 28.875467 0.000000 0.000000 0.000000 -7.590868 0.782316 -10.401700 2.243253 -0.186116 0.754567 -10.420207 -24.023770 18.962878 0.000000 0.000000 0.000000 7.670717 -1.447118 11.840948 -2.480057 1.040730 -18.523052 -8.962540 -5.024310 24.582502 2.973030 -1.513993 -25.023106 0.000000 0.000000 0.000000 2.157317 -34.465136 11.782596 -6.636225 -61.315739 0.083732 16.245937 -64.530711 -6.337688 0.000000 0.000000 0.000000 16.998750 9.619086 2.008697 40.344921 13.173956 -1.056423 30.054085 57.809435 17.414377 0.000000 0.000000 0.000000 
-0.021277 0.954723 -0.021711 1.685567 -5.906590 7.755664 6.452359 -0.386303 -8.077686 -5.396548 0.605956 -3.657764 10.522972 20.208566 27.010232 0.000000 0.000000 0.000000 -7.575858 0.818732 -10.909107 2.455269 -0.207524 0.575198 -10.203015 -23.747638 19.165439 0.000000 0.000000 0.000000 7.701954 -1.423926 11.504076 -2.711291 1.095802 -18.654742 -8.449552 -3.437562 24.546152 4.242873 -2.263318 -22.749851 0.000000 0.000000 0.000000 5.801014 -33.530734 10.082507 -0.930491 -58.066255 -2.706232 36.352808 -67.259180 -20.407171 0.000000 0.000000 0.000000 16.654814 9.796720 2.473487 38.899907 14.463135 -0.782427 35.108576 58.497425 20.894938 0.000000 0.000000 0.000000 
